<?xml version="1.0" encoding="UTF-8"?>
<svg width="256px" height="256px" viewBox="0 0 256 256" version="1.1" xmlns="http://www.w3.org/2000/svg" xmlns:xlink="http://www.w3.org/1999/xlink">
    <title>xueyan-favicon</title>
    <defs>
        <circle id="path-1" cx="128" cy="128" r="128"></circle>
    </defs>
    <g id="xueyan-favicon" stroke="none" stroke-width="1" fill="none" fill-rule="evenodd">
        <mask id="mask-2" fill="white">
            <use xlink:href="#path-1"></use>
        </mask>
        <use id="Oval" fill="#0A7AFF" opacity="0.504001436" xlink:href="#path-1"></use>
        <path d="M128.254834,-66.1025971 C199.91013,-66.1025971 258.254834,-36.9302451 258.254834,-0.102597104 C258.254834,17.0619537 245.580698,32.5635556 224.791924,44.2237052 C243.865807,66.1646831 255.588772,94.6681284 256.127758,125.897215 L256.254834,125.897403 L256.254834,129.897403 L256.13549,129.898498 C255.716927,161.16428 244.088398,189.723766 225.086207,211.740653 C245.700503,223.378168 258.254834,238.814171 258.254834,255.897403 C258.254834,292.725051 199.91013,321.897403 128.254834,321.897403 C56.5995381,321.897403 -1.745166,292.725051 -1.745166,255.897403 C-1.745166,238.854141 10.750486,223.450409 31.2782665,211.818855 C11.8806537,189.384644 0.147186258,160.137643 0.147186258,128.150145 C0.147186258,96.0008223 11.9996727,66.6197962 31.5733621,44.1383503 C10.8704176,32.4918491 -1.745166,17.0222592 -1.745166,-0.102597104 C-1.745166,-36.9302451 56.5995381,-66.1025971 128.254834,-66.1025971 Z M222.362516,214.793473 L221.393701,215.838135 C200.801195,237.72764 172.587587,252.365666 140.991339,255.51375 C136.87659,257.0779 132.619475,257.897403 128.254834,257.897403 C123.920178,257.897403 119.691574,257.089121 115.604109,255.545989 C83.4249735,252.413814 54.7353889,237.368325 34.0042177,214.875414 C14.2411188,225.858466 2.254834,240.267697 2.254834,255.897403 C2.254834,289.762203 58.525234,317.897403 128.254834,317.897403 C197.984434,317.897403 254.254834,289.762203 254.254834,255.897403 C254.254834,240.230215 242.210991,225.789363 222.362516,214.793473 Z M126.254852,193.905127 C108.810412,194.039959 92.2405539,195.935434 77.2231946,199.236756 C86.3308593,225.98149 100.375928,245.24144 116.529273,251.611867 C120.353609,251.968432 124.229177,252.150145 128.147186,252.150145 L126.254834,252.134403 Z M130.342641,193.905821 L130.254834,193.905403 L130.255852,252.132577 C133.551976,252.077618 136.816801,251.89405 140.045527,251.586674 C156.171329,245.189869 170.190999,225.945694 179.286516,199.237651 C163.696292,195.809508 146.432915,193.897403 128.254834,193.897403 Z M73.2994441,200.142853 L72.0299605,200.449464 C59.1583058,203.635022 47.546918,207.874482 37.6559947,212.926995 C55.3892273,231.849798 78.9897808,245.206721 105.554935,250.096935 C92.2364946,240.574035 80.9901213,222.888054 73.2994441,200.142853 Z M183.209953,200.139623 L182.798055,201.34718 C175.135568,223.468285 164.081137,240.674375 151.03195,250.041205 C177.513161,245.101791 201.032396,231.744966 218.70918,212.853344 C208.523563,207.667392 196.524512,203.342625 183.209953,200.139623 Z M62.261834,129.897403 L4.15925744,129.898275 C4.58231716,160.514686 16.1013039,188.449507 34.8766744,209.863197 C45.530869,204.297048 58.1057931,199.695315 72.0540868,196.317721 C65.8290492,176.429513 62.254834,152.978869 62.254834,127.897403 L62.261834,129.897403 Z M252.132834,129.897403 L194.247243,129.898239 C194.062534,154.225688 190.514781,176.959298 184.454965,196.318009 C198.339151,199.679641 210.862067,204.254368 221.483698,209.783589 C240.577373,187.974657 252.147186,159.413538 252.147186,128.150145 L252.132834,129.897403 Z M126.254834,129.897403 L66.2625658,129.898341 C66.4489586,154.002109 69.9968034,176.43608 75.9701289,195.41186 C91.9797669,191.859913 109.669579,189.897403 128.254834,189.897403 L126.254834,189.904403 L126.254834,129.897403 Z M190.245834,129.897403 L130.254834,129.897403 L130.25567,189.904994 C148.109766,190.040553 165.105388,191.987515 180.538488,195.409491 C186.677841,175.911991 190.254834,152.760271 190.254834,127.897403 L190.245834,129.897403 Z M35.1799573,46.0912404 L33.9962006,47.4522735 C15.8436856,68.6112829 4.70063066,95.959681 4.16724113,125.897262 L62.262418,125.897498 C62.4470432,101.569698 65.9948095,78.8357544 72.0547026,59.4767969 C58.2375517,56.1313968 45.7685624,51.5845862 35.1799573,46.0912404 Z M75.9711798,60.3853152 L75.6338799,61.4631091 C69.701396,80.7354349 66.254834,103.492043 66.254834,127.897403 L66.262834,125.897403 L126.254834,125.897403 L126.254929,65.8898189 C108.400493,65.7543204 91.4045481,63.8073498 75.9711798,60.3853152 Z M180.539539,60.3829461 L178.796912,60.7637909 C163.25057,64.0741309 146.168658,65.8974029 128.254834,65.8974029 L130.254834,65.8894029 L130.254834,125.897403 L190.24711,125.897421 C190.060803,101.79329 186.512944,79.3589764 180.539539,60.3829461 Z M221.179445,46.1661517 L220.12557,46.7077709 C209.800133,51.9253115 197.751842,56.2573817 184.455581,59.4770849 C190.680619,79.365293 194.254834,102.815937 194.254834,127.897403 L194.246834,125.897403 L252.127131,125.897262 C251.58287,95.3494563 239.992016,67.4974612 221.179445,46.1661517 Z M126.255302,4.16428425 C122.447467,4.22123602 118.681227,4.44982622 114.963977,4.84266203 C99.4701834,11.8104004 86.035505,30.6805934 77.2231517,56.5571549 C92.813376,59.9852979 110.076753,61.8974029 128.254834,61.8974029 L126.254834,61.8884029 Z M130.255852,4.16771266 L130.255772,61.8896711 C147.699861,61.7547771 164.269389,59.8593119 179.286473,56.55805 C170.486683,30.7173577 157.07765,11.8640344 141.611189,4.87294911 C137.873479,4.46907152 134.085794,4.23157238 130.255852,4.16771266 Z M104.626574,6.3777758 L104.126879,6.47493938 C78.3043291,11.5435757 55.3553677,24.6276258 37.977768,43.0293169 C48.1233577,48.1768313 60.0612818,52.4704938 73.2997149,55.6551823 C80.8106579,33.4375155 91.7135584,16.0489369 104.626574,6.3777758 Z M151.955999,6.43361764 L152.189218,6.60877739 C164.968424,16.3243947 175.758439,33.6132754 183.210224,55.6519524 C196.385236,52.4856854 208.272388,48.2177693 218.387197,43.1048503 C200.952633,24.6121688 177.899086,11.4788763 151.955999,6.43361764 Z M128.254834,-62.1025971 C58.525234,-62.1025971 2.254834,-33.9673971 2.254834,-0.102597104 C2.254834,15.6083635 14.3660696,30.0861263 34.3136987,41.0934169 C54.656518,19.1751887 82.5819107,4.39817707 113.916825,0.932254108 C118.52415,-1.05532356 123.320786,-2.1025971 128.254834,-2.1025971 C133.213886,-2.1025971 138.034131,-1.04468215 142.663032,0.961192622 C173.919662,4.49227214 201.766647,19.277315 222.053292,41.168582 C242.085741,30.155199 254.254834,15.6458455 254.254834,-0.102597104 C254.254834,-33.9673971 197.984434,-62.1025971 128.254834,-62.1025971 Z" id="Combined-Shape" fill="#0084FF" fill-rule="nonzero" mask="url(#mask-2)" transform="translate(128.254834, 127.897403) rotate(45.000000) translate(-128.254834, -127.897403) "></path>
        <path d="M128,252 C53.1417488,250.331196 53.8084155,209.66453 130,130 C206.191585,50.3354703 246.858251,49.6688036 252,128 C252,57.307552 198.692448,0 128,0 C57.307552,0 0,57.307552 0,128 C0,198.692448 57.307552,252 128,252 Z" id="Oval" fill="#0084FF" mask="url(#mask-2)"></path>
    </g>
</svg>